<svg fill="#000000" xmlns="http://www.w3.org/2000/svg"  viewBox="0 5 50 50" width="100%" height="100%"><path d="M 10.8125 2 C 10.519531 2.054688 10.265625 2.234375 10.121094 2.496094 C 9.976563 2.753906 9.957031 3.066406 10.0625 3.34375 C 10.492188 4.558594 11.28125 6.066406 12.375 7.34375 C 9.414063 7.320313 6 7.753906 2.53125 9.1875 C 2.167969 9.332031 1.925781 9.675781 1.90625 10.0625 C 1.886719 10.453125 2.09375 10.816406 2.4375 11 C 2.460938 11.011719 2.933594 11.378906 3.4375 11.875 C 3.941406 12.371094 4.558594 12.988281 5.25 13.65625 C 6.453125 14.8125 7.84375 16.078125 9.4375 16.78125 C 8.445313 17.625 6.578125 18.871094 3.8125 19.09375 C 3.425781 19.121094 3.089844 19.367188 2.949219 19.730469 C 2.808594 20.089844 2.890625 20.5 3.15625 20.78125 C 3.15625 20.78125 3.742188 21.414063 4.625 22.0625 C 5.109375 22.417969 5.714844 22.753906 6.375 23.03125 C 5.8125 23.6875 5.304688 24.378906 4.5 24.96875 C 3.304688 25.839844 2.21875 26.4375 2.21875 26.4375 C 1.902344 26.613281 1.703125 26.949219 1.703125 27.3125 C 1.703125 27.675781 1.902344 28.011719 2.21875 28.1875 C 2.21875 28.1875 2.863281 28.53125 3.65625 28.875 C 4.023438 29.035156 4.472656 29.082031 4.875 29.21875 C 3.257813 32.804688 0.46875 34.75 0.46875 34.75 C 0.136719 34.925781 -0.0703125 35.273438 -0.0664063 35.648438 C -0.0625 36.023438 0.152344 36.363281 0.492188 36.53125 C 0.828125 36.699219 1.230469 36.660156 1.53125 36.4375 C 1.53125 36.4375 5.527344 33.886719 7.25 28.9375 C 7.363281 28.632813 7.316406 28.289063 7.132813 28.023438 C 6.945313 27.753906 6.640625 27.59375 6.3125 27.59375 C 6.117188 27.59375 5.394531 27.355469 4.78125 27.125 C 5.164063 26.878906 5.195313 26.898438 5.65625 26.5625 C 6.960938 25.609375 8.460938 24.4375 9.125 22.90625 C 9.261719 22.601563 9.234375 22.253906 9.0625 21.972656 C 8.886719 21.6875 8.582031 21.511719 8.25 21.5 C 7.621094 21.472656 6.894531 21.066406 6.25 20.65625 C 8.9375 19.898438 10.703125 18.421875 11.40625 17.71875 C 11.496094 17.640625 11.570313 17.542969 11.625 17.4375 C 13.917969 17.859375 15.578125 17.382813 16.34375 17 C 16.675781 16.847656 16.902344 16.523438 16.925781 16.15625 C 16.949219 15.792969 16.769531 15.441406 16.460938 15.246094 C 16.148438 15.050781 15.757813 15.039063 15.4375 15.21875 C 15.15625 15.359375 13.355469 15.972656 10.8125 15.15625 C 9.519531 14.753906 7.972656 13.484375 6.65625 12.21875 C 6.023438 11.609375 5.425781 11.015625 4.90625 10.5 C 8.746094 9.265625 12.503906 9.164063 15.375 9.5 C 15.617188 9.53125 15.859375 9.476563 16.0625 9.34375 C 17.785156 8.195313 20.054688 7 23.09375 7 C 27.859375 7 30.515625 7.613281 32.0625 8.34375 C 33.609375 9.074219 34.113281 9.859375 34.78125 10.78125 C 34.964844 11.03125 35.253906 11.179688 35.5625 11.1875 C 41.273438 11.382813 45.09375 13.125 45.09375 13.125 C 45.222656 13.171875 45.363281 13.195313 45.5 13.1875 C 45.5 13.1875 46.527344 13.222656 47.9375 13.40625 C 47.871094 13.667969 47.558594 14.1875 47.34375 14.4375 C 47.136719 14.679688 47.054688 15.003906 47.125 15.3125 C 47.304688 16.140625 46.648438 18.230469 45.78125 19.9375 C 45.027344 21.425781 44.382813 22.332031 44.1875 22.625 C 43.523438 22.722656 38.449219 23.410156 34.34375 20.84375 L 34.34375 20.875 C 32.246094 19.511719 30.492188 18.839844 28.875 19 C 27.257813 19.160156 25.972656 20.21875 25.125 21.6875 C 24.488281 22.765625 24.167969 23.746094 24.1875 24.6875 C 24.207031 25.628906 24.640625 26.480469 25.25 27.09375 C 26.464844 28.324219 28.273438 28.894531 30.25 29.4375 C 32.226563 29.980469 34.371094 30.425781 36.125 31.09375 C 37.683594 31.6875 38.792969 32.445313 39.40625 33.375 C 39.136719 34.035156 38.476563 34.917969 37.65625 35.625 C 37.496094 35.761719 37.496094 35.722656 37.34375 35.84375 C 37.25 35.480469 37.195313 35.097656 36.84375 34.78125 C 36.339844 34.328125 35.609375 34.179688 34.84375 34.3125 C 32.945313 34.628906 31.929688 34.246094 30.9375 33.96875 C 30.441406 33.828125 29.878906 33.679688 29.21875 33.84375 C 28.558594 34.007813 28.019531 34.519531 27.625 35.1875 C 27.613281 35.21875 27.601563 35.25 27.59375 35.28125 C 26.855469 36.828125 27.199219 38.515625 27.59375 39.8125 C 27.6875 40.113281 27.710938 40.085938 27.8125 40.34375 C 26.957031 40.054688 26.25 39.65625 26.25 39.65625 C 26.019531 39.460938 25.714844 39.375 25.417969 39.429688 C 25.121094 39.484375 24.863281 39.671875 24.71875 39.9375 C 22.882813 43.484375 25.21875 47.65625 25.21875 47.65625 C 25.371094 47.988281 25.695313 48.214844 26.0625 48.238281 C 26.425781 48.261719 26.777344 48.082031 26.972656 47.773438 C 27.167969 47.460938 27.179688 47.070313 27 46.75 C 27 46.75 25.902344 44.167969 26.25 42 C 27.070313 42.40625 28.210938 42.78125 29.53125 42.59375 C 29.859375 42.550781 30.144531 42.351563 30.292969 42.058594 C 30.441406 41.761719 30.4375 41.414063 30.28125 41.125 C 30.28125 41.125 29.828125 40.296875 29.5 39.21875 C 29.183594 38.179688 29.058594 36.980469 29.375 36.21875 C 29.394531 36.183594 29.386719 36.214844 29.40625 36.1875 C 29.617188 35.851563 29.695313 35.785156 29.71875 35.78125 C 29.742188 35.773438 29.964844 35.78125 30.40625 35.90625 C 31.289063 36.152344 32.851563 36.664063 35.15625 36.28125 C 35.542969 36.214844 35.558594 36.273438 35.53125 36.25 C 35.503906 36.226563 35.542969 36.304688 35.5625 36.5 C 35.597656 36.890625 35.4375 37.5 35.4375 37.5 C 35.300781 37.90625 35.433594 38.355469 35.773438 38.617188 C 36.113281 38.878906 36.582031 38.894531 36.9375 38.65625 C 36.9375 38.65625 37.917969 38.03125 38.96875 37.125 C 40.019531 36.21875 41.210938 35.078125 41.5625 33.53125 C 41.617188 33.3125 41.59375 33.082031 41.5 32.875 C 40.808594 31.414063 39.511719 30.484375 38.03125 29.78125 C 38.226563 28.976563 38.328125 27.792969 37.90625 26.3125 C 36.820313 27.671875 35.582031 28.570313 35.34375 28.75 C 34.902344 28.613281 34.445313 28.464844 34 28.34375 C 34.058594 27.898438 34.09375 27.433594 34.09375 26.90625 C 33.621094 27.328125 33.105469 27.671875 32.625 27.96875 C 32.308594 27.886719 31.996094 27.800781 31.6875 27.71875 C 31.75 27.238281 31.746094 26.699219 31.6875 26.09375 C 31.148438 26.578125 30.59375 26.96875 30.0625 27.28125 C 29.722656 27.179688 29.402344 27.078125 29.09375 26.96875 C 29.183594 26.460938 29.246094 25.914063 29.1875 25.3125 C 28.703125 25.742188 28.199219 26.105469 27.71875 26.40625 C 27.273438 26.179688 26.890625 25.925781 26.65625 25.6875 C 26.328125 25.355469 26.195313 25.089844 26.1875 24.65625 C 26.179688 24.222656 26.359375 23.59375 26.875 22.71875 C 26.875 22.707031 26.875 22.699219 26.875 22.6875 C 27.527344 21.554688 28.15625 21.089844 29.0625 21 C 29.328125 20.972656 29.65625 21 30 21.0625 C 29.988281 21.578125 29.960938 22.167969 29.90625 22.8125 C 30.605469 22.558594 31.179688 22.128906 31.6875 21.65625 C 32.046875 21.828125 32.433594 22.0625 32.84375 22.3125 C 32.90625 22.804688 32.933594 23.425781 32.8125 24.3125 C 33.398438 24.136719 33.929688 23.703125 34.40625 23.1875 C 34.730469 23.347656 35.050781 23.492188 35.375 23.625 C 35.355469 24.144531 35.277344 24.734375 35.1875 25.40625 C 35.804688 25.222656 36.390625 24.707031 36.90625 24.125 C 37.597656 24.320313 38.277344 24.460938 38.9375 24.5625 C 39.046875 25.316406 39.15625 26.59375 38.90625 28.40625 C 40.359375 27.898438 41.585938 25.890625 42.15625 24.8125 C 43.832031 24.796875 44.96875 24.59375 44.96875 24.59375 C 45.238281 24.542969 45.476563 24.386719 45.625 24.15625 C 45.625 24.15625 46.628906 22.6875 47.5625 20.84375 C 48.410156 19.171875 49.1875 17.25 49.03125 15.4375 C 49.367188 15.011719 49.746094 14.519531 49.90625 13.8125 C 50.003906 13.390625 50.011719 12.851563 49.71875 12.34375 C 49.425781 11.835938 48.867188 11.515625 48.28125 11.40625 C 48.261719 11.40625 48.238281 11.40625 48.21875 11.40625 C 46.746094 11.210938 45.78125 11.1875 45.65625 11.1875 C 45.316406 11.039063 41.640625 9.527344 36.09375 9.25 C 35.472656 8.402344 34.648438 7.339844 32.9375 6.53125 C 31.15625 5.691406 28.507813 5.125 24.3125 5.03125 C 23.976563 4.796875 23.085938 4.207031 21.28125 3.5625 C 19.074219 2.773438 15.707031 2 11 2 C 10.96875 2 10.9375 2 10.90625 2 C 10.875 2 10.84375 2 10.8125 2 Z M 12.75 4.15625 C 15.988281 4.320313 18.546875 4.761719 20.25 5.3125 C 18.28125 5.75 16.6875 6.589844 15.40625 7.40625 C 14.386719 6.726563 13.457031 5.410156 12.75 4.15625 Z M 28.34375 12.125 C 26.980469 12.1875 26 12.40625 26 12.40625 C 26.101563 13.105469 27.488281 15.113281 29.1875 15.3125 C 30.488281 14.113281 31.800781 13.1875 33 12.6875 C 31.449219 12.136719 29.707031 12.0625 28.34375 12.125 Z"/></svg>