<?xml version="1.0" ?><svg id="art" viewBox="0 0 64 64" xmlns="http://www.w3.org/2000/svg"><defs><style>.cls-1{fill:#283d77;}.cls-2{fill:#212e5e;}.cls-3{fill:#2f4984;}.cls-4{fill:#5df9e6;}.cls-5{fill:#819bc6;}.cls-6{fill:#041256;}</style></defs><title/><polygon class="cls-1" points="44.31 38.72 44.31 24.95 32 7.83 19.69 24.95 19.69 38.72 32 55.83 44.31 38.72"/><polygon class="cls-2" points="32 7.83 32 55.83 44.31 38.72 44.31 24.95 32 7.83"/><polygon class="cls-1" points="19.69 24.95 19.69 25.19 32 31.83 44.31 25.19 44.31 24.95 32 7.83 19.69 24.95"/><polygon class="cls-3" points="32 45.42 20.24 39.07 32 55.42 43.76 39.07 32 45.42"/><polygon class="cls-1" points="32 45.42 32 55.42 43.76 39.07 32 45.42"/><polygon class="cls-4" points="42.77 26.29 42.77 38.26 32 53.23 32 56.17 44.31 39.05 44.31 25.28 42.77 26.29"/><polygon class="cls-3" points="19.69 24.95 19.69 25.19 32 31.83 32 7.83 19.69 24.95"/><polygon class="cls-5" points="22.02 40.25 21.52 39.55 21.52 25.78 33.22 9.52 32 7.83 19.69 24.95 19.69 38.72 32 55.83 32.6 55 22.02 40.3 22.02 40.25"/><path class="cls-6" d="M32,57.55,18.69,39V24.63L32,6.12,45.31,24.63V39ZM20.69,38.4,32,54.12,43.31,38.4V25.27L32,9.55,20.69,25.27Zm23.62.32h0Z"/><path class="cls-6" d="M19.69,25l0,.24v0c1.07.47,2.12,1,3.19,1.46L26,28.17c2.09,1,4.15,2.13,6.21,3.22h-.48c2.06-1.09,4.12-2.19,6.21-3.22l3.14-1.54c1.07-.49,2.12-1,3.19-1.46v0l0-.24,0,.24h0c-1,.64-2,1.24-3,1.86l-3,1.78c-2,1.19-4.06,2.31-6.1,3.42L32,32.4l-.24-.13c-2-1.11-4.09-2.23-6.1-3.42l-3-1.78c-1-.62-2-1.22-3-1.86h0Z"/><path class="cls-6" d="M32.5,31.83l-.5,24-.5-24a.5.5,0,0,1,.49-.51.51.51,0,0,1,.51.49Z"/></svg>