<?xml version="1.0" ?><svg id="art" style="enable-background:new 0 0 64 64;" version="1.1" viewBox="0 0 64 64" xml:space="preserve" xmlns="http://www.w3.org/2000/svg" xmlns:xlink="http://www.w3.org/1999/xlink"><style type="text/css">
	.st00{fill:#F2E8D1;}
	.st01{fill:#FFF8E9;}
	.st02{fill:none;stroke:#041256;stroke-linecap:round;stroke-miterlimit:10;}
	.st03{fill:#823C50;}
	.st04{fill:#9B566D;}
	.st05{fill:none;stroke:#041256;stroke-width:2;stroke-linecap:round;stroke-miterlimit:10;}
	.st06{fill:#F9DFCD;}
	.st07{fill:#EACAB5;}
	.st08{fill:none;stroke:#041256;stroke-width:2;stroke-linecap:round;stroke-linejoin:bevel;}
	.st09{fill:#FFEADC;}
	.st0010{fill:#FFF6F0;}
	.st0011{fill:#5DF9E6;}
	.st0012{fill:#041256;}
	.st0013{fill:#EDD2C0;}
	.st0014{fill:#F7AD9F;}
</style><title/>
<path class="st00" d="M14.7,45c-0.3,1.2,0,2.5,0.9,3.4c1.9-0.7,2.9-2.8,2.2-4.8c-0.2-0.4-0.4-0.9-0.7-1.2C15.9,42.8,15,43.8,14.7,45z  "/><path class="st00" d="M15.1,43.5c-0.3,1.2,0,2.5,0.9,3.5c1.2-0.4,2.1-1.4,2.4-2.6"/><path class="st01" d="M15.9,47c-0.7-0.7-1-1.7-1-2.7c-0.1,0.2-0.2,0.4-0.2,0.7c-0.3,1.2,0,2.5,0.9,3.4c1.2-0.4,2.1-1.4,2.3-2.6  C18,45.5,18,45.3,18,45C17.6,45.9,16.9,46.6,15.9,47z"/><path class="st02" d="M14.7,45c-0.3,1.2,0,2.5,0.9,3.4c1.9-0.7,2.9-2.8,2.2-4.8c-0.2-0.4-0.4-0.9-0.7-1.2C15.9,42.8,15,43.8,14.7,45z  "/><path class="st00" d="M15.5,41.9c-0.3,1.2,0,2.5,0.9,3.4c1.9-0.7,2.9-2.8,2.2-4.8c-0.2-0.5-0.4-0.9-0.7-1.2  C16.6,39.8,15.8,40.7,15.5,41.9z"/><path class="st00" d="M15.8,40.5c-0.3,1.2,0,2.5,0.9,3.4c1.2-0.4,2-1.4,2.3-2.6"/><path class="st01" d="M16.7,44c-0.7-0.7-1-1.7-1-2.7c-0.1,0.2-0.2,0.4-0.2,0.7c-0.3,1.2,0,2.5,0.9,3.4c1.2-0.4,2.1-1.4,2.4-2.6  c0.1-0.2,0.1-0.5,0.1-0.7C18.3,43,17.6,43.7,16.7,44z"/><path class="st02" d="M15.5,41.9c-0.3,1.2,0,2.5,0.9,3.4c1.9-0.7,2.9-2.8,2.2-4.8c-0.2-0.5-0.4-0.9-0.7-1.2  C16.6,39.8,15.8,40.7,15.5,41.9z"/><path class="st00" d="M16.2,38.9c-0.3,1.2,0,2.5,0.9,3.4c1.9-0.7,2.9-2.8,2.2-4.8c-0.2-0.5-0.4-0.9-0.7-1.2  C17.4,36.8,16.5,37.7,16.2,38.9z"/><path class="st00" d="M16.6,37.5c-0.3,1.2,0,2.5,0.9,3.5c1.2-0.4,2.1-1.4,2.4-2.6"/><path class="st01" d="M17.4,41c-0.7-0.7-1-1.7-1-2.7c-0.1,0.2-0.2,0.4-0.2,0.7c-0.3,1.2,0,2.5,0.9,3.4c1.2-0.4,2.1-1.4,2.4-2.6  c0.1-0.2,0.1-0.5,0.1-0.7C19.1,40,18.3,40.7,17.4,41z"/><path class="st02" d="M16.2,38.9c-0.3,1.2,0,2.5,0.9,3.4c1.9-0.7,2.9-2.8,2.2-4.8c-0.2-0.5-0.4-0.9-0.7-1.2  C17.4,36.8,16.5,37.7,16.2,38.9z"/><path class="st00" d="M17,35.9c-0.3,1.2,0,2.5,0.9,3.4c1.9-0.7,2.9-2.8,2.2-4.8c-0.2-0.4-0.4-0.9-0.7-1.2  C18.2,33.8,17.3,34.7,17,35.9z"/><path class="st00" d="M17.3,34.5c-0.3,1.2,0,2.5,0.9,3.4c1.2-0.4,2-1.4,2.4-2.6"/><path class="st01" d="M18.2,37.9c-0.7-0.7-1-1.7-1-2.7c-0.1,0.2-0.2,0.4-0.2,0.7c-0.3,1.2,0,2.5,0.9,3.4c1.2-0.4,2.1-1.4,2.4-2.6  c0.1-0.2,0.1-0.5,0.1-0.7C19.8,36.9,19.1,37.6,18.2,37.9z"/><path class="st02" d="M17,35.9c-0.3,1.2,0,2.5,0.9,3.4c1.9-0.7,2.9-2.8,2.2-4.8c-0.2-0.4-0.4-0.9-0.7-1.2  C18.2,33.8,17.3,34.7,17,35.9z"/><path class="st00" d="M17.7,32.9c-0.3,1.2,0,2.5,0.9,3.4c1.9-0.7,2.9-2.8,2.2-4.8c-0.2-0.4-0.4-0.9-0.7-1.2  C18.9,30.7,18,31.7,17.7,32.9z"/><path class="st00" d="M18,31.5c-0.3,1.2,0,2.5,0.9,3.4c1.2-0.4,2.1-1.4,2.4-2.6"/><path class="st01" d="M18.9,34.9c-0.7-0.7-1-1.7-1-2.7c-0.1,0.2-0.2,0.4-0.2,0.7c-0.3,1.2,0,2.5,0.9,3.4c1.2-0.4,2.1-1.4,2.4-2.6  c0.1-0.2,0.1-0.5,0.1-0.7C20.6,33.9,19.8,34.6,18.9,34.9z"/><path class="st02" d="M17.7,32.9c-0.3,1.2,0,2.5,0.9,3.4c1.9-0.7,2.9-2.8,2.2-4.8c-0.2-0.4-0.4-0.9-0.7-1.2  C18.9,30.7,18,31.7,17.7,32.9z"/><path class="st00" d="M49.3,45c0.3,1.2,0,2.5-0.9,3.4c-1.9-0.7-2.9-2.8-2.2-4.8c0.2-0.4,0.4-0.9,0.7-1.2C48.1,42.8,49,43.8,49.3,45z"/><path class="st00" d="M48.9,43.5c0.3,1.2,0,2.5-0.9,3.5c-1.2-0.4-2.1-1.4-2.3-2.6"/><path class="st01" d="M48.1,47c0.7-0.7,1-1.7,1-2.7c0.1,0.2,0.2,0.4,0.2,0.7c0.3,1.2,0,2.5-0.9,3.4c-1.2-0.4-2.1-1.4-2.3-2.6  C46,45.5,46,45.3,46,45C46.4,45.9,47.1,46.6,48.1,47z"/><path class="st02" d="M49.3,45c0.3,1.2,0,2.5-0.9,3.4c-1.9-0.7-2.9-2.8-2.2-4.8c0.2-0.4,0.4-0.9,0.7-1.2C48.1,42.8,49,43.8,49.3,45z"/><path class="st00" d="M48.5,41.9c0.3,1.2,0,2.5-0.9,3.4c-1.9-0.7-2.9-2.8-2.2-4.8c0.2-0.5,0.4-0.9,0.7-1.2  C47.4,39.8,48.2,40.7,48.5,41.9z"/><path class="st00" d="M48.2,40.5c0.3,1.2,0,2.5-0.9,3.4c-1.2-0.4-2-1.4-2.3-2.6"/><path class="st01" d="M47.3,44c0.7-0.7,1-1.7,1-2.7c0.1,0.2,0.2,0.4,0.2,0.7c0.3,1.2,0,2.5-0.9,3.4c-1.2-0.4-2.1-1.4-2.3-2.6  c-0.1-0.2-0.1-0.5-0.1-0.7C45.7,43,46.4,43.7,47.3,44z"/><path class="st02" d="M48.5,41.9c0.3,1.2,0,2.5-0.9,3.4c-1.9-0.7-2.9-2.8-2.2-4.8c0.2-0.5,0.4-0.9,0.7-1.2  C47.4,39.8,48.2,40.7,48.5,41.9z"/><path class="st00" d="M47.8,38.9c0.3,1.2,0,2.5-0.9,3.4c-1.9-0.7-2.9-2.8-2.2-4.8c0.2-0.5,0.4-0.9,0.7-1.2  C46.6,36.8,47.5,37.7,47.8,38.9z"/><path class="st00" d="M47.4,37.5c0.3,1.2,0,2.5-0.9,3.5c-1.2-0.4-2.1-1.4-2.3-2.6"/><path class="st01" d="M46.6,41c0.7-0.7,1-1.7,1-2.7c0.1,0.2,0.2,0.4,0.2,0.7c0.3,1.2,0,2.5-0.9,3.4c-1.2-0.4-2.1-1.4-2.3-2.6  c-0.1-0.2-0.1-0.5-0.1-0.7C44.9,40,45.7,40.7,46.6,41z"/><path class="st02" d="M47.8,38.9c0.3,1.2,0,2.5-0.9,3.4c-1.9-0.7-2.9-2.8-2.2-4.8c0.2-0.5,0.4-0.9,0.7-1.2  C46.6,36.8,47.5,37.7,47.8,38.9z"/><path class="st00" d="M47,35.9c0.3,1.2,0,2.5-0.9,3.4c-1.9-0.7-2.9-2.8-2.2-4.8c0.2-0.4,0.4-0.9,0.7-1.2C45.8,33.8,46.7,34.7,47,35.9  z"/><path class="st00" d="M46.7,34.5c0.3,1.2,0,2.5-0.9,3.4c-1.2-0.4-2-1.4-2.3-2.6"/><path class="st01" d="M45.8,37.9c0.7-0.7,1-1.7,1-2.7c0.1,0.2,0.2,0.4,0.2,0.7c0.3,1.2,0,2.5-0.9,3.4c-1.2-0.4-2.1-1.4-2.3-2.6  c-0.1-0.2-0.1-0.5-0.1-0.7C44.2,36.9,44.9,37.6,45.8,37.9z"/><path class="st02" d="M47,35.9c0.3,1.2,0,2.5-0.9,3.4c-1.9-0.7-2.9-2.8-2.2-4.8c0.2-0.4,0.4-0.9,0.7-1.2C45.8,33.8,46.7,34.7,47,35.9  z"/><path class="st00" d="M46.3,32.9c0.3,1.2,0,2.5-0.9,3.4c-1.9-0.7-2.9-2.8-2.2-4.8c0.2-0.4,0.4-0.9,0.7-1.2  C45.1,30.7,46,31.7,46.3,32.9z"/><path class="st00" d="M46,31.5c0.3,1.2,0,2.5-0.9,3.4c-1.2-0.4-2.1-1.4-2.3-2.6"/><path class="st01" d="M45.1,34.9c0.7-0.7,1-1.7,1-2.7c0.1,0.2,0.2,0.4,0.2,0.7c0.3,1.2,0,2.5-0.9,3.4c-1.2-0.4-2.1-1.4-2.3-2.6  C43.1,33.5,43,33.2,43,33C43.4,33.9,44.2,34.6,45.1,34.9z"/><path class="st02" d="M46.3,32.9c0.3,1.2,0,2.5-0.9,3.4c-1.9-0.7-2.9-2.8-2.2-4.8c0.2-0.4,0.4-0.9,0.7-1.2  C45.1,30.7,46,31.7,46.3,32.9z"/><path class="st03" d="M56,56v-9.7c-2.7-0.2-5.4-0.6-8-1.3c-7.8-2.1-13.3-5.7-12.4-8.2h-7.2c0.9,2.5-4.6,6.1-12.4,8.2  c-2.6,0.7-5.3,1.2-8,1.3V56"/><path class="0" d="M48,44.9c-7.8-2.1-13.3-5.7-12.4-8.2h-7.2c0.9,2.5-4.6,6.1-12.4,8.2c-2.6,0.7-5.3,1.2-8,1.3v3  c2.7-0.1,5.4-0.6,8-1.3c7.8-2.1,13.3-5.7,12.4-8.2h7.2c-1,2.4,4.6,6.1,12.4,8.2c2.6,0.7,5.3,1.2,8,1.3v-3  C53.3,46.1,50.6,45.7,48,44.9z"/><path class="0" d="M28.4,42.2c-0.7,2.3-5.7,5.3-12.4,7.1c-2.6,0.7-5.3,1.2-8,1.3v1.1c2.7-0.2,5.4-0.6,8-1.3  C23.7,48.3,29.3,44.6,28.4,42.2z"/><path class="0" d="M28.4,45.2L28.4,45.2z"/><path class="0" d="M28.4,42.2h7.2c-0.1-0.4-0.1-0.7,0-1.1h-7.2C28.5,41.4,28.5,41.8,28.4,42.2z"/><path class="0" d="M48,49.3c-6.7-1.8-11.7-4.7-12.4-7.1c-0.9,2.5,4.7,6.1,12.4,8.2c2.6,0.7,5.3,1.2,8,1.3v-1.1  C53.3,50.4,50.6,50,48,49.3z"/><path class="0" d="M35.6,45.2L35.6,45.2z"/><path class="0" d="M28.4,44.5c-0.7,2.3-5.7,5.3-12.4,7.1c-2.6,0.7-5.3,1.1-8,1.3v1.1c2.7-0.2,5.4-0.6,8-1.3  C23.7,50.5,29.3,46.9,28.4,44.5z"/><path class="0" d="M28.4,47.5L28.4,47.5z"/><path class="0" d="M28.4,44.4h7.2c-0.1-0.4-0.1-0.7,0-1.1h-7.2C28.5,43.7,28.5,44.1,28.4,44.4z"/><path class="0" d="M48,51.5c-6.7-1.8-11.7-4.7-12.4-7.1c-0.9,2.5,4.7,6.1,12.4,8.2c2.6,0.7,5.3,1.1,8,1.3v-1.1  C53.3,52.7,50.6,52.2,48,51.5z"/><path class="0" d="M35.6,47.5L35.6,47.5z"/><path class="0" d="M28.4,46.7c-0.7,2.3-5.7,5.3-12.4,7.1c-2.6,0.7-5.3,1.2-8,1.3v1.1c2.7-0.2,5.4-0.6,8-1.3  C23.7,52.8,29.3,49.2,28.4,46.7z"/><path class="0" d="M28.4,49.7L28.4,49.7z"/><path class="0" d="M28.4,46.7h7.2c-0.1-0.4-0.1-0.7,0-1.1h-7.2C28.5,46,28.5,46.3,28.4,46.7z"/><path class="0" d="M48,53.8c-6.7-1.8-11.7-4.7-12.4-7.1c-0.9,2.5,4.7,6.1,12.4,8.2c2.6,0.7,5.3,1.2,8,1.3v-1.1  C53.3,54.9,50.6,54.5,48,53.8z"/><path class="0" d="M35.6,49.7L35.6,49.7L35.6,49.7z"/><path class="st05" d="M56,56v-9.7c-2.7-0.2-5.4-0.6-8-1.3c-7.8-2.1-13.3-5.7-12.4-8.2h-7.2c0.9,2.5-4.6,6.1-12.4,8.2  c-2.6,0.7-5.3,1.2-8,1.3V56"/><path class="st06" d="M25.7,33.5l1,11c0,0.1,0,0.2,0,0.2c0,4.7,1.5,8.8,5.3,11.3c3.8-2.5,5.3-6.6,5.3-11.3c0-0.1,0-0.2,0-0.2l1-11  L25.7,33.5z"/><path class="st07" d="M35.6,35.9l-8.3,3.6l4.1,4.7c0.4,0.5,0.7,1.1,0.7,1.8v10c3.7-2.5,5.2-6.6,5.3-11.3v-0.2l0.7-7.4L35.6,35.9z"/><path class="st08" d="M25.7,33.5l1,11c0,0.1,0,0.2,0,0.2c0,4.7,1.5,8.8,5.3,11.3c3.8-2.5,5.3-6.6,5.3-11.3c0-0.1,0-0.2,0-0.2l1-11  L25.7,33.5z"/><path class="st09" d="M44.5,20.8c0-6.9-5.6-12.5-12.4-12.5s-12.5,5.6-12.5,12.4c0,2,0.5,3.9,1.4,5.7c0.5,1,1,2.1,1.2,3.3l0.2,1  c0.5,2.2,1.7,4.3,3.3,5.9l2.7,2.7c0.7,0.7,1.8,1.2,2.8,1.2h1.6c1,0,2.1-0.4,2.8-1.2l2.7-2.7c1.6-1.6,2.8-3.7,3.3-5.9l0.2-1  c0.3-1.2,0.7-2.3,1.3-3.3C44,24.7,44.5,22.8,44.5,20.8z"/><path class="st0010" d="M22.5,14l-0.8,9.3l1.3,3.9l1.9-2.7h3.8c1.8,0,3.2-1.5,3.2-3.2l0,0c0-0.8,0.3-1.6,0.9-2.2l3.5-3.7L22.5,14z"/><path class="st0010" d="M30.3,26.7l0.8,1.3c0.1,0.1,0.1,0.3,0.1,0.4l0.2,4.3l-0.9-3c0-0.1,0-0.3,0-0.4l0.2-1c0-0.1,0-0.3,0-0.4  L30.3,26.7z"/><path class="st06" d="M33.7,26.7L32.9,28c-0.1,0.1-0.1,0.3-0.1,0.4l-0.2,4.3l0.9-3c0-0.1,0-0.3,0-0.4l-0.2-1c0-0.1,0-0.3,0-0.4  L33.7,26.7z"/><path class="st0010" d="M27.8,34c-0.3-0.6-0.8-1.1-1.5-1.4c-0.7-0.3-1.2-0.9-1.5-1.6l-1.3-3l-1.9,3.1l4.1,5l3.9,3.6"/><path class="st06" d="M36.2,34c0.3-0.6,0.8-1.1,1.5-1.4c0.7-0.3,1.2-0.9,1.5-1.6l1.3-3l1.9,3.1l-4.1,5l-3.9,3.6L36.2,34z"/><path class="st0011" d="M31.1,8.4c6.5,0.5,11.5,5.9,11.5,12.4c0,1.9-0.5,3.9-1.3,5.6c-0.6,1.1-1,2.2-1.3,3.3l-0.2,1  c-0.5,2.2-1.7,4.3-3.3,5.9l-2.7,2.7c-0.7,0.7-1.7,1.1-2.7,1.1h0.1h1.6c1,0,2.1-0.4,2.8-1.2l2.7-2.7c1.6-1.6,2.8-3.7,3.3-5.9l0.2-1  c0.3-1.2,0.7-2.3,1.3-3.3c3.1-6.1,0.7-13.6-5.5-16.7C35.6,8.7,33.3,8.2,31.1,8.4L31.1,8.4z"/><path class="st0010" d="M30.6,39.3l-2.7-2.7c-1.6-1.6-2.8-3.7-3.3-5.9l-0.2-1c-0.3-1.1-0.7-2.2-1.3-3.3c-3.1-6.1-0.7-13.6,5.5-16.7  c1.3-0.7,2.7-1.1,4.2-1.3c0.1,0,0.2,0,0.3,0c-6.8-0.6-12.9,4.4-13.5,11.3c-0.2,2.3,0.2,4.7,1.3,6.8c0.5,1,1,2.1,1.2,3.3l0.2,1  c0.5,2.2,1.7,4.3,3.3,5.9l2.7,2.7c0.7,0.7,1.8,1.2,2.8,1.2h1.6h0.3C32.1,40.4,31.3,40,30.6,39.3z"/><path class="st00" d="M21.5,20.3c-0.9,0.1-1.6,0.7-1.9,1.5c0.1,1.6,0.6,3.2,1.3,4.6c0.2,0.4,0.4,0.8,0.5,1.2l0,0  c1.3,0,2.3-1.6,2.3-3.7S22.8,20.3,21.5,20.3z"/><path class="st01" d="M22.2,20.5c0.6,0.8,0.8,1.8,0.8,2.8c0,1.8-0.8,3.3-1.9,3.6c0.1,0.3,0.3,0.5,0.4,0.8l0,0c1.3,0,2.3-1.6,2.3-3.7  C23.9,22.6,23.3,21.3,22.2,20.5z"/><path class="st0012" d="M21.5,20.3c-0.4,0-0.8,0.2-1.1,0.5c-0.3,0.3-0.5,0.7-0.7,1.1l0,0c0.2,1,0.5,2,0.9,2.9c0.2,0.5,0.4,0.9,0.7,1.3  c0.2,0.4,0.5,0.9,0.7,1.4l-0.5-0.3c0.6-0.1,1.2-0.5,1.4-1.1c0.4-0.7,0.6-1.4,0.7-2.2c0.1-0.8,0-1.6-0.3-2.3  C23,20.9,22.3,20.4,21.5,20.3z M21.5,20.3c0.8,0.1,1.5,0.6,1.9,1.4c0.4,0.7,0.7,1.5,0.7,2.4c0.1,0.9-0.1,1.7-0.4,2.5  c-0.2,0.4-0.5,0.8-0.8,1.1c-0.4,0.3-0.9,0.5-1.4,0.5h-0.3L21,27.9c-0.2-0.5-0.4-0.9-0.6-1.4c-0.2-0.5-0.4-1-0.5-1.5  c-0.3-1-0.4-2.1-0.4-3.1l0,0c0.2-0.4,0.5-0.7,0.8-1C20.6,20.5,21,20.3,21.5,20.3z"/><path class="st00" d="M42.5,20.3c0.9,0.1,1.6,0.7,1.9,1.5c-0.1,1.6-0.6,3.2-1.3,4.6c-0.2,0.4-0.4,0.8-0.5,1.2l0,0  c-1.3,0-2.3-1.6-2.3-3.7S41.2,20.3,42.5,20.3z"/><path class="st01" d="M41.8,20.5c-0.6,0.8-0.9,1.8-0.8,2.8c0,1.8,0.8,3.3,1.9,3.6c-0.1,0.3-0.3,0.5-0.4,0.8l0,0  c-1.3,0-2.3-1.6-2.3-3.7C40.1,22.6,40.7,21.3,41.8,20.5z"/><path class="st0011" d="M42.5,20.3L42.5,20.3c0.2,0.2,0.3,0.4,0.4,0.7c-0.1,1.6-0.6,3.2-1.3,4.6c-0.2,0.4-0.4,0.8-0.5,1.2l0,0  c0.3,0.5,0.9,0.8,1.5,0.9l0,0c0.2-0.4,0.3-0.8,0.5-1.2c0.7-1.4,1.2-3,1.3-4.6C44.1,21,43.4,20.4,42.5,20.3z"/><path class="st0012" d="M42.5,20.3c0.4,0,0.9,0.2,1.2,0.5c0.3,0.3,0.6,0.6,0.8,1l0,0c0,1.1-0.1,2.2-0.4,3.2c-0.1,0.5-0.3,1-0.5,1.5  c-0.2,0.5-0.4,0.9-0.6,1.4l-0.1,0.3h-0.3c-0.5,0-1-0.2-1.4-0.5c-0.4-0.3-0.6-0.7-0.8-1.1c-0.3-0.8-0.5-1.7-0.4-2.5  c0.1-0.8,0.3-1.6,0.7-2.4C41,20.9,41.7,20.4,42.5,20.3z M42.5,20.3c-0.8,0.1-1.5,0.6-1.8,1.4c-0.3,0.7-0.4,1.5-0.3,2.3  c0.1,0.7,0.3,1.5,0.7,2.1c0.3,0.6,0.8,1,1.4,1.1l-0.5,0.3c0.2-0.5,0.5-1,0.7-1.4c0.2-0.4,0.5-0.9,0.7-1.3c0.4-0.9,0.7-1.9,0.9-2.9  l0,0c-0.2-0.4-0.4-0.8-0.7-1.1C43.4,20.5,43,20.3,42.5,20.3z"/><path class="st05" d="M41.6,30.7l0.2-1c0.3-1.2,0.7-2.3,1.3-3.3c3.1-6.1,0.6-13.6-5.5-16.7S24,9,20.9,15.2c-1.8,3.6-1.8,7.8,0,11.3  c0.5,1,1,2.1,1.2,3.3l0.2,1c0.5,2.2,1.7,4.3,3.3,5.9l2.7,2.7c0.7,0.7,1.8,1.2,2.8,1.2"/><path class="st05" d="M31.2,40.5h1.6c1,0,2.1-0.4,2.8-1.2l2.7-2.7c1.6-1.6,2.8-3.7,3.3-5.9"/><path class="st013" d="M30.9,36.7c0,0.6,0.5,1.1,1.1,1.1c0.6,0,1.1-0.5,1.1-1.1c0,0,0,0,0,0H30.9z"/><path class="st013" d="M33.3,32.7l-0.8,0.4l0,0L32,33l-0.5,0.1l0,0l-0.8-0.4l-0.4,0.2l0.4,0.5c0.2,0.2,0.4,0.4,0.7,0.5l0.6,0.3  l0.6-0.3c0.3-0.1,0.5-0.3,0.7-0.5l0.4-0.5L33.3,32.7z"/><path class="st0014" d="M33.2,35L32,35.3L30.8,35l-1,0.2c0,0,0.5,0.7,2.2,0.9c1.7-0.2,2.2-0.9,2.2-0.9L33.2,35z"/><path class="st0014" d="M32.9,34.5c-0.3-0.2-0.9,0.2-0.9,0.2s-0.6-0.4-0.9-0.2s-1.7,0.7-1.7,0.7l0.5,0.1l0.6-0.1l1.5,0.4l1.5-0.4  l0.6,0.1l0.5-0.1C34.6,35.1,33.2,34.6,32.9,34.5z"/><path class="st0012" d="M32,33.4c-0.2,0-0.3,0-0.5-0.1c-0.1-0.1-0.3-0.2-0.4-0.3l-0.4-0.3c-0.1-0.1-0.2,0-0.4,0.1  c0.1-0.1,0.2-0.3,0.4-0.2l0.4,0.2c0.1,0.1,0.3,0.1,0.4,0.1c0.1,0,0.3,0,0.4,0L32,33.4z"/><path class="st0012" d="M33.6,32.9c-0.1-0.1-0.3-0.2-0.4-0.1L32.9,33c-0.1,0.1-0.3,0.2-0.4,0.3c-0.2,0.1-0.3,0.1-0.5,0.1v-0.5  c0.1,0,0.3,0,0.4,0c0.1,0,0.3-0.1,0.4-0.1l0.4-0.2C33.4,32.6,33.5,32.8,33.6,32.9z"/><path class="st0012" d="M29.1,35.1h0.8l0.8-0.1l0,0l1.2,0c0.1,0,0.2,0.1,0.2,0.2s-0.1,0.2-0.2,0.2h-0.1l-1.2-0.3l0,0h-0.8l0,0  L29.1,35.1z"/><path class="st0012" d="M34.9,35.1l-0.8,0.2l0,0h-0.8l0,0l-1.2,0.3c-0.1,0-0.3-0.1-0.3-0.2c0-0.1,0.1-0.2,0.2-0.3H32l1.2-0.1l0,0  l0.8,0.1L34.9,35.1L34.9,35.1z"/><path class="st0012" d="M30.9,36.6c0.4-0.1,0.7-0.1,1.1-0.1c0.4,0,0.8,0,1.1,0.1C32.4,36.8,31.6,36.8,30.9,36.6z"/><circle class="st0012" cx="27.5" cy="27.5" r="0.8"/><path class="st0012" d="M30.2,26.6c-0.3-0.1-0.6-0.3-0.9-0.4c-0.3-0.1-0.6-0.1-0.8-0.1l0,0c-0.5,0-1-0.1-1.6-0.2  c-0.5-0.1-1-0.3-1.5-0.5c0.5-0.1,1.1-0.2,1.6-0.2c0.5,0,1,0.1,1.5,0.2l0,0c0.4,0,0.7,0.2,1,0.4C29.8,26.1,30,26.4,30.2,26.6z"/><circle class="st0012" cx="36.3" cy="27.5" r="0.8"/><path class="st0012" d="M33.6,26.6c0.2-0.3,0.4-0.5,0.7-0.8c0.3-0.2,0.6-0.3,1-0.4l0,0c0.4-0.1,0.9-0.2,1.3-0.2c0.5,0,0.9,0,1.3,0.1  c-0.4,0.2-0.8,0.4-1.2,0.5c-0.4,0.1-0.9,0.2-1.3,0.2l0,0c-0.3,0-0.6,0-0.8,0.1C34.3,26.4,34,26.5,33.6,26.6z"/><path class="st00" d="M39.5,56c0,0-0.6-2.3,3-6.2c0,0-6.9-7.2-2.5-14.5c1.8-3.4,3.1-7.1,3.6-10.9l1.9,3.3c1.6,3.4,1.4,7.3-0.6,10.5  c-3.3,5.3,7.2,6.9,3.4,14c0,0,2.2,1.9,2,3.8"/><path class="st01" d="M50.4,55.8c0-0.5-0.1-0.9-0.3-1.4c-0.1,0.2-0.2,0.5-0.3,0.7C50,55.3,50.2,55.5,50.4,55.8z"/><path class="st01" d="M49.3,48.6c-0.3-2.3-2.2-3.9-3.6-5.6C45.7,45.1,47.8,46.7,49.3,48.6z"/><path class="st01" d="M41.3,38.2c1.8-3.4,3.1-7.1,3.6-10.9l1.3,2.2c-0.2-0.6-0.4-1.2-0.7-1.8l-1.9-3.3c-0.6,3.8-1.8,7.5-3.7,10.9  c-2.7,4.5-1.2,8.8,0.4,11.6C39.4,44,39.7,40.8,41.3,38.2z"/><path class="st0011" d="M44.4,28.9c1.6,3.4,1.4,7.3-0.5,10.5c-3.3,5.3,7.2,6.9,3.4,14c0.8,0.7,1.4,1.6,1.8,2.6h1.4  c0.2-1.9-2-3.8-2-3.8c3.8-7.1-6.7-8.7-3.4-14c1.9-3.2,2.1-7.1,0.5-10.5l-1.9-3.3c0,0-0.1,1-0.5,2.4L44.4,28.9z"/><path class="st01" d="M43.8,52.7c-0.7-0.7-1.3-1.5-1.8-2.3c-3,3.6-2.5,5.7-2.5,5.7h1.9C42,54.8,42.8,53.6,43.8,52.7z"/><path class="st0012" d="M45,38.2c-0.2,0.6-0.3,1.2-0.2,1.9c0.1,0.6,0.3,1.1,0.7,1.5c0.4,0.5,0.8,1,1.2,1.4c0.4,0.5,0.9,0.9,1.4,1.4  c1.1,1.1,1.8,2.4,2.1,3.9c0.1,0.8,0,1.5-0.2,2.3c-0.2,0.7-0.5,1.4-0.9,2L49,51.7c0.3,0.3,0.5,0.6,0.7,1c0.2,0.3,0.4,0.6,0.5,1  c0.3,0.7,0.4,1.6,0.1,2.3c-0.1-0.7-0.5-1.3-0.9-1.9c-0.2-0.3-0.5-0.5-0.7-0.8c-0.2-0.2-0.5-0.5-0.8-0.6l-0.4-0.3l0.2-0.6  c0.2-0.5,0.4-1.1,0.5-1.7c0.1-0.5,0.1-1.1,0-1.6c-0.3-1.1-0.9-2.1-1.7-3c-0.9-1-1.7-2.2-2.3-3.4C44,41.5,43.9,40.8,44,40  C44.2,39.3,44.5,38.7,45,38.2z"/><path class="st0012" d="M39.5,56c-0.1-0.6-0.1-1.2,0-1.8c0.1-0.6,0.3-1.2,0.6-1.8c0.3-0.6,0.5-1.1,0.9-1.6c0.3-0.5,0.7-1,1.1-1.5v0.9  c-1.7-1.7-3-3.7-3.8-6c-0.6-1.8-0.8-3.6-0.5-5.5l0.2-0.9l0.3-0.9c0.2-0.6,0.5-1.2,0.8-1.7c0.3-0.6,0.5-1,0.8-1.5c0.5-1,1-2,1.4-3  c0.8-2.1,1.5-4.2,2-6.4l0.3-1.1l0.5,1c0.5,1.1,1.1,2.3,1.6,3.5c-0.8-1-1.5-2-2.3-3l0.8-0.1c-0.2,2.3-0.6,4.6-1.3,6.8  c-0.4,1.1-0.8,2.2-1.3,3.3c-0.2,0.5-0.6,1.1-0.8,1.5c-0.3,0.4-0.5,0.9-0.6,1.4l-0.2,0.7L39.7,39c-0.1,0.5-0.1,1-0.2,1.5  c0,1,0.2,2.1,0.5,3.1c0.6,2.1,1.6,4,3,5.7l0.4,0.5L43,50.2c-0.4,0.4-0.8,0.8-1.2,1.2c-0.4,0.4-0.7,0.9-1,1.3c-0.3,0.5-0.6,1-0.8,1.5  C39.7,54.8,39.5,55.4,39.5,56z"/><path class="st0012" d="M45.6,27.7c0.6,0.8,1,1.6,1.2,2.5c0.3,0.9,0.4,1.8,0.3,2.8c0,1-0.2,1.9-0.6,2.8c-0.4,0.9-0.9,1.7-1.5,2.4  c0.3-0.9,0.6-1.7,0.8-2.6c0.2-0.9,0.3-1.7,0.3-2.6C46.2,31.2,46,29.4,45.6,27.7z"/><path class="st00" d="M24.5,56c0,0,0.6-2.3-3-6.2c0,0,6.9-7.2,2.5-14.5c-1.8-3.4-3.1-7.1-3.6-10.9l-1.9,3.3  c-1.6,3.4-1.4,7.3,0.6,10.5c3.3,5.3-7.2,6.9-3.4,14c0,0-2.1,1.9-1.9,3.8"/><path class="st01" d="M13.6,56h1.7c0.4-1.1,1-2,1.8-2.8c-3.8-7.1,6.7-8.7,3.4-14c-1.9-3.2-2.1-7.1-0.6-10.5l0.9-1.5  c-0.4-1.7-0.5-2.8-0.5-2.8l-1.9,3.3c-1.6,3.4-1.4,7.3,0.6,10.5c3.3,5.3-7.2,6.9-3.4,14C15.5,52.2,13.4,54.1,13.6,56z"/><path class="st01" d="M13.6,55.8c0-0.5,0.1-0.9,0.3-1.4c0.1,0.2,0.2,0.5,0.3,0.7C14,55.3,13.8,55.5,13.6,55.8z"/><path class="st01" d="M14.7,48.6c0.3-2.3,2.2-3.9,3.6-5.6C18.3,45.1,16.2,46.7,14.7,48.6z"/><path class="st01" d="M22.7,38.2c-1.8-3.4-3.1-7.1-3.6-10.9l-1.3,2.2c0.2-0.6,0.4-1.2,0.7-1.8l1.9-3.3c0.6,3.8,1.8,7.5,3.6,10.9  c2.7,4.5,1.2,8.8-0.4,11.6C24.6,44,24.3,40.8,22.7,38.2z"/><path class="st0012" d="M18.4,27.7c-0.4,1.7-0.6,3.5-0.6,5.3c0,0.9,0.1,1.7,0.3,2.6c0.2,0.9,0.5,1.7,0.8,2.6c-0.7-0.7-1.2-1.5-1.5-2.4  c-0.4-0.9-0.6-1.9-0.6-2.8c0-1,0.1-1.9,0.3-2.8C17.4,29.3,17.9,28.4,18.4,27.7z"/><path class="st01" d="M20.2,52.7c0.7-0.7,1.3-1.5,1.8-2.3c3,3.6,2.5,5.7,2.5,5.7h-1.9C22,54.8,21.2,53.6,20.2,52.7z"/><path class="st0012" d="M19,38.2c0.5,0.5,0.8,1.1,1,1.8c0.1,0.8,0,1.5-0.3,2.2c-0.6,1.2-1.4,2.3-2.3,3.4c-0.8,0.9-1.3,1.9-1.6,3  c-0.1,0.5-0.1,1.1-0.1,1.6c0.1,0.6,0.3,1.1,0.5,1.7l0.2,0.6L16,52.8c-0.2,0.2-0.5,0.4-0.8,0.6c-0.3,0.2-0.5,0.5-0.7,0.8  c-0.5,0.5-0.8,1.2-0.9,1.9c-0.2-0.8-0.2-1.6,0.2-2.3c0.2-0.4,0.3-0.7,0.6-1c0.2-0.4,0.5-0.7,0.7-1l-0.2,0.9c-0.4-0.6-0.7-1.3-0.9-2  c-0.2-0.8-0.3-1.5-0.1-2.3c0.3-1.5,1-2.8,2.1-3.9c0.5-0.5,1-1,1.4-1.4c0.4-0.4,0.9-0.9,1.2-1.3c0.4-0.4,0.6-1,0.7-1.5  C19.3,39.4,19.2,38.8,19,38.2z"/><path class="st0012" d="M24.5,56c0-0.6-0.1-1.2-0.4-1.7c-0.2-0.5-0.5-1-0.8-1.5c-0.3-0.5-0.6-0.9-1-1.3c-0.4-0.4-0.8-0.8-1.2-1.2  l-0.4-0.4l0.4-0.5c1.4-1.7,2.4-3.6,3-5.7c0.3-1,0.4-2,0.5-3.1c0-0.5-0.1-1-0.2-1.6l-0.1-0.8l-0.2-0.7c-0.2-0.5-0.4-1-0.6-1.4  c-0.2-0.4-0.6-1-0.8-1.5c-0.5-1.1-0.9-2.2-1.3-3.3c-0.7-2.2-1.1-4.5-1.2-6.8l0.8,0.1c-0.7,1-1.5,2-2.3,3c0.5-1.2,1-2.3,1.6-3.5  l0.5-1l0.3,1.1c0.5,2.2,1.2,4.3,2,6.4c0.4,1,0.9,2,1.4,3c0.3,0.5,0.5,0.9,0.8,1.5c0.3,0.5,0.6,1.1,0.8,1.7l0.3,0.9l0.2,0.9  c0.3,1.8,0.1,3.7-0.5,5.5c-0.8,2.3-2.1,4.3-3.8,6v-0.9c0.4,0.5,0.7,1,1.1,1.5c0.3,0.5,0.6,1.1,0.9,1.7c0.3,0.6,0.4,1.1,0.6,1.8  C24.7,54.8,24.7,55.4,24.5,56z"/><path class="st00" d="M38.7,15.5c0,0-6.1,4.6-15.5,2c0,0,0.4,5.8-3,7.9c0,0-4-8.7-0.8-10.3c0,0,0.8-7.2,12.4-7.2s12.3,7,12.3,7  s4.2,3-0.9,10.5c0,0-1.6-3.8-1.2-5.8S38.7,15.5,38.7,15.5z"/><path class="st0011" d="M34.7,8.2c-0.5-0.1-1-0.1-1.6-0.1c1.2,0.1,2.5,0.4,3.6,0.9C36,8.6,35.3,8.4,34.7,8.2z"/><path class="st0011" d="M44.2,15c0,0-0.5-4-5.7-6c4.5,2,4.8,5.6,4.8,5.6s3.9,2.9-0.4,9.8c0.2,0.6,0.4,1.1,0.4,1.1  C48.3,18.1,44.2,15,44.2,15z"/><path class="st01" d="M21.1,18c0,0,0.8-7.2,12.3-7.2c5.8,0,8.8,1.8,10.5,3.5C43.4,12.6,41.1,8,31.8,8c-11.6,0-12.4,7.1-12.4,7.1  c-3.2,1.6,0.8,10.3,0.8,10.3c0.2-0.1,0.3-0.2,0.5-0.4C19.9,22.4,19.2,18.9,21.1,18z"/><path class="st01" d="M45.6,17.4c-0.2-0.9-0.7-1.8-1.4-2.4l0,0c-1.8-1.5-4.8-2.8-9.8-2.8c-11.6,0-12.4,7.1-12.4,7.1  c-1,0.5-1.3,1.7-1.2,3.2c-0.1-0.9,0.4-1.8,1.2-2.3c0,0,0.8-7.1,12.4-7.1C41.1,13,44.2,15.4,45.6,17.4z"/><path class="st01" d="M45.4,16.8c-0.2-0.4-0.4-0.9-0.7-1.2c-2.5-1.1-5.2-1.7-7.9-1.6c-6.4,0-9.5,2.2-11,4.1c0.2,0,0.4,0.1,0.6,0.1  c1.7-1.7,4.8-3.4,10.3-3.4C40.8,14.8,43.6,15.7,45.4,16.8z"/><path class="st0012" d="M20.2,25.5c-0.9-1.6-1.6-3.3-2.1-5.1c-0.3-0.9-0.4-1.9-0.4-2.9c0-0.5,0.1-1.1,0.3-1.6c0.2-0.6,0.6-1.1,1.2-1.4  l-0.4,0.6c0.5-2.9,2.4-5.3,5.1-6.4C26.4,7.5,29,6.9,31.8,7c2.7-0.1,5.4,0.5,7.9,1.6c2.7,1.1,4.6,3.6,5.2,6.4l-0.3-0.5  c0.8,0.8,1.4,1.8,1.6,2.9c0.2,1,0.2,2.1-0.1,3.1c-0.1,0.5-0.3,1-0.5,1.4c-0.2,0.5-0.4,0.9-0.7,1.3s-0.5,0.8-0.8,1.2l-0.9,1.2  l0.7-1.3c0.2-0.4,0.4-0.9,0.6-1.3s0.3-0.9,0.4-1.4c0.1-0.4,0.2-0.9,0.3-1.4c0.1-0.9,0.1-1.8-0.2-2.7c-0.2-0.8-0.7-1.5-1.3-2  l-0.2-0.2l-0.1-0.3c-0.3-1.1-0.9-2.1-1.7-2.9c-0.8-0.9-1.8-1.5-2.9-2c-2.3-0.9-4.7-1.3-7.1-1.2c-2.4-0.1-4.9,0.4-7.1,1.3  c-1.1,0.5-2,1.1-2.9,2c-0.8,0.8-1.4,1.9-1.6,3l-0.1,0.4l-0.3,0.1c-0.6,0.4-1,1-1,1.7c-0.1,0.9,0,1.8,0.1,2.6  C19.2,22,19.6,23.7,20.2,25.5z"/><path class="st0012" d="M43.3,25.6c-0.5-0.8-1-1.7-1.3-2.6c-0.4-1-0.5-2-0.4-3c0-0.8-0.3-1.7-0.9-2.2c-0.6-0.7-1.3-1.4-2-2.1  c0.9,0.4,1.8,0.9,2.5,1.6c0.4,0.3,0.7,0.8,1,1.2c0.2,0.2,0.3,0.5,0.3,0.8c0,0.2,0,0.3,0,0.5c0,0.2,0,0.4,0,0.4  c-0.1,0.9,0,1.8,0.2,2.7L43.3,25.6z"/><path class="st0012" d="M38.7,15.5c-1.1,0.8-2.2,1.5-3.5,2c-1.3,0.5-2.6,0.9-4,1.1c-1.4,0.2-2.7,0.2-4.1,0.1c-1.4-0.1-2.7-0.4-4-0.8  l0.6-0.5c0,0.8,0,1.5-0.2,2.3c-0.1,0.8-0.3,1.5-0.5,2.2c-0.3,0.7-0.6,1.4-1.1,2c-0.5,0.6-1,1.1-1.7,1.5c0.6-0.5,1-1,1.4-1.6  c0.3-0.6,0.6-1.3,0.8-2c0.2-0.7,0.3-1.4,0.4-2.1c0-0.7,0-1.4,0-2.1V17l0.6,0.1c0.6,0.1,1.3,0.3,1.9,0.4s1.3,0.2,2,0.2  c1.3,0.1,2.6,0.1,3.9,0c1.3-0.1,2.6-0.4,3.8-0.8C36.3,16.7,37.5,16.2,38.7,15.5z"/><line class="st05" x1="8" x2="56" y1="56" y2="56"/></svg>