<?xml version="1.0" ?><svg id="art" viewBox="0 0 64 64" xmlns="http://www.w3.org/2000/svg"><defs><style>.cls-1{fill:#8ec6f4;}.cls-2{fill:#74b3ed;}.cls-3{fill:#5df9e6;}.cls-4{fill:#b8e2ff;}.cls-5{fill:#d9f1ff;}.cls-6{fill:#041256;}</style></defs><title/><polygon class="cls-1" points="22.05 26.25 22.05 37.75 32 43.49 41.95 37.75 41.95 26.25 32 20.51 22.05 26.25"/><polygon class="cls-2" points="41.95 37.75 41.95 26.25 32 20.51 32 43.49 41.95 37.75"/><polygon class="cls-3" points="40.29 25.29 40.29 36.66 32 41.45 32 43.49 41.95 37.75 41.95 26.25 40.29 25.29"/><polygon class="cls-4" points="22.05 26.25 32 32 41.95 26.25 32 20.51 22.05 26.25"/><polygon class="cls-5" points="23.91 27.35 33.87 21.6 41.95 26.27 41.95 26.25 32 20.51 22.05 26.25 22.05 37.75 23.91 38.82 23.91 27.35"/><path class="cls-6" d="M32,44.49a1,1,0,0,1-.5-.13l-9.95-5.75a1,1,0,0,1-.5-.86V26.25a1,1,0,0,1,.5-.86l10-5.75a1,1,0,0,1,1,0l10,5.75a1,1,0,0,1,.5.86v11.5a1,1,0,0,1-.5.86l-10,5.75A1,1,0,0,1,32,44.49Zm-8.95-7.32,9,5.17,9-5.17V26.83l-9-5.17-8.95,5.17Z"/><path class="cls-6" d="M32,21.51a1,1,0,0,1-1-1V8a1,1,0,0,1,2,0V20.51A1,1,0,0,1,32,21.51Z"/><path class="cls-6" d="M32,15a1,1,0,0,1-.71-.29l-2.48-2.49a1,1,0,0,1,1.41-1.41L32,12.59l1.78-1.78a1,1,0,0,1,1.41,1.41l-2.48,2.49A1,1,0,0,1,32,15Z"/><path class="cls-6" d="M32,20.37a1,1,0,0,1-.71-.29L27.81,16.6a1,1,0,0,1,0-1.42,1,1,0,0,1,1.41,0L32,18l2.78-2.78a1,1,0,0,1,1.41,0,1,1,0,0,1,0,1.42l-3.48,3.48A1,1,0,0,1,32,20.37Z"/><path class="cls-6" d="M32,57a1,1,0,0,1-1-1V43.49a1,1,0,0,1,2,0V56A1,1,0,0,1,32,57Z"/><path class="cls-6" d="M34.49,53.48a1,1,0,0,1-.71-.29L32,51.41l-1.78,1.78a1,1,0,0,1-1.41-1.41l2.48-2.49a1,1,0,0,1,1.42,0l2.48,2.49a1,1,0,0,1-.7,1.7Z"/><path class="cls-6" d="M35.48,49.11a1,1,0,0,1-.7-.29L32,46l-2.78,2.78a1,1,0,0,1-1.41,0,1,1,0,0,1,0-1.42l3.48-3.48a1,1,0,0,1,1.42,0l3.48,3.48a1,1,0,0,1-.71,1.71Z"/><path class="cls-6" d="M22,27.25a1,1,0,0,1-.49-.13L10.72,20.87a1,1,0,0,1-.5-.87,1,1,0,0,1,1.5-.87l10.83,6.26A1,1,0,0,1,22,27.25Z"/><path class="cls-6" d="M13,24.91a1,1,0,0,1-.26-2l2.43-.66-.65-2.43a1,1,0,1,1,1.93-.51l.91,3.39A1,1,0,0,1,16.67,24l-3.39.91Z"/><path class="cls-6" d="M16.3,28a1,1,0,0,1-.25-2l3.79-1-1-3.79a1,1,0,1,1,1.94-.52L22,25.43a1,1,0,0,1-.71,1.22l-4.76,1.28A1.09,1.09,0,0,1,16.3,28Z"/><path class="cls-6" d="M52.78,45a1,1,0,0,1-.5-.13L41.45,38.61a1,1,0,0,1,1-1.73l10.83,6.25a1,1,0,0,1,.5.87,1,1,0,0,1-1,1Z"/><path class="cls-6" d="M48.49,45.39a1,1,0,0,1-1-.74l-.91-3.39A1,1,0,0,1,47.33,40l3.39-.91a1,1,0,1,1,.52,1.93l-2.43.66.65,2.43a1,1,0,0,1-.71,1.22A1.09,1.09,0,0,1,48.49,45.39Z"/><path class="cls-6" d="M44.21,44.07a1,1,0,0,1-1-.74L42,38.57a1,1,0,0,1,.71-1.22l4.76-1.28A1,1,0,0,1,48,38l-3.79,1,1,3.79A1,1,0,0,1,44.47,44Z"/><path class="cls-6" d="M11.22,45a1,1,0,0,1-.5-1.87l10.83-6.25a1,1,0,1,1,1,1.73L11.72,44.87A1,1,0,0,1,11.22,45Z"/><path class="cls-6" d="M15.51,45.39a1.09,1.09,0,0,1-.26,0,1,1,0,0,1-.71-1.22l.65-2.43-2.43-.66a1,1,0,1,1,.52-1.93l3.39.91a1,1,0,0,1,.71,1.23l-.91,3.39A1,1,0,0,1,15.51,45.39Z"/><path class="cls-6" d="M19.79,44.07l-.26,0a1,1,0,0,1-.71-1.23l1-3.79-3.79-1a1,1,0,1,1,.51-1.93l4.76,1.28A1,1,0,0,1,22,38.57l-1.27,4.76A1,1,0,0,1,19.79,44.07Z"/><path class="cls-6" d="M42,27.25a1,1,0,0,1-.51-1.86l10.83-6.26a1,1,0,0,1,1.5.87,1,1,0,0,1-.5.87L42.45,27.12A1,1,0,0,1,42,27.25Z"/><path class="cls-6" d="M51,24.91l-.26,0L47.33,24a1,1,0,0,1-.71-1.23l.91-3.39a1,1,0,1,1,1.93.51l-.65,2.43,2.43.66a1,1,0,0,1-.26,2Z"/><path class="cls-6" d="M47.7,28a1.09,1.09,0,0,1-.26,0l-4.76-1.28A1,1,0,0,1,42,25.43l1.27-4.76a1,1,0,1,1,1.94.52l-1,3.79L48,26a1,1,0,0,1-.25,2Z"/><polygon class="cls-1" points="43.41 15.26 43.41 16.5 44.47 17.11 45.54 16.5 45.54 15.26 44.47 14.65 43.41 15.26"/><polygon class="cls-1" points="43.9 7.7 42.34 9.27 42.91 11.4 45.05 11.98 46.61 10.41 46.04 8.27 43.9 7.7"/><polygon class="cls-1" points="38.1 17.7 38.1 18.93 39.16 19.55 40.23 18.93 40.23 17.7 39.16 17.08 38.1 17.7"/><polygon class="cls-1" points="40.3 13.17 40.3 13.78 40.84 14.09 41.37 13.78 41.37 13.17 40.84 12.86 40.3 13.17"/><polygon class="cls-1" points="20.59 48.74 20.59 47.5 19.53 46.89 18.46 47.5 18.46 48.74 19.53 49.35 20.59 48.74"/><polygon class="cls-1" points="20.1 56.3 21.66 54.73 21.09 52.6 18.95 52.02 17.39 53.59 17.96 55.73 20.1 56.3"/><polygon class="cls-1" points="25.9 46.3 25.9 45.07 24.84 44.45 23.77 45.07 23.77 46.3 24.84 46.92 25.9 46.3"/><polygon class="cls-1" points="23.7 50.83 23.7 50.22 23.16 49.91 22.63 50.22 22.63 50.83 23.16 51.14 23.7 50.83"/><polygon class="cls-1" points="11.86 29.91 12.94 29.32 12.97 28.09 11.93 27.45 10.84 28.03 10.81 29.26 11.86 29.91"/><polygon class="cls-1" points="16.52 33.42 17.6 32.84 17.64 31.61 16.59 30.96 15.5 31.55 15.47 32.78 16.52 33.42"/><polygon class="cls-1" points="11.48 33.63 12.03 33.34 12.04 32.73 11.52 32.4 10.98 32.7 10.96 33.31 11.48 33.63"/><polygon class="cls-1" points="52.15 34.09 51.06 34.68 51.02 35.91 52.07 36.55 53.16 35.97 53.19 34.74 52.15 34.09"/><polygon class="cls-1" points="47.48 30.58 46.4 31.16 46.36 32.39 47.41 33.04 48.5 32.45 48.53 31.22 47.48 30.58"/><polygon class="cls-1" points="52.52 30.36 51.97 30.66 51.96 31.27 52.48 31.6 53.02 31.3 53.04 30.69 52.52 30.36"/><polygon class="cls-1" points="20.59 15.26 20.59 16.5 19.53 17.11 18.46 16.5 18.46 15.26 19.53 14.65 20.59 15.26"/><polygon class="cls-1" points="20.1 7.7 21.66 9.27 21.09 11.4 18.95 11.98 17.39 10.41 17.96 8.27 20.1 7.7"/><polygon class="cls-1" points="25.9 17.7 25.9 18.93 24.84 19.55 23.77 18.93 23.77 17.7 24.84 17.08 25.9 17.7"/><polygon class="cls-1" points="23.7 13.17 23.7 13.78 23.16 14.09 22.63 13.78 22.63 13.17 23.16 12.86 23.7 13.17"/><polygon class="cls-1" points="43.41 48.74 43.41 47.5 44.47 46.89 45.54 47.5 45.54 48.74 44.47 49.35 43.41 48.74"/><polygon class="cls-1" points="43.9 56.3 42.34 54.73 42.91 52.6 45.05 52.02 46.61 53.59 46.04 55.73 43.9 56.3"/><polygon class="cls-1" points="38.1 46.3 38.1 45.07 39.16 44.45 40.23 45.07 40.23 46.3 39.16 46.92 38.1 46.3"/><polygon class="cls-1" points="40.3 50.83 40.3 50.22 40.84 49.91 41.37 50.22 41.37 50.83 40.84 51.14 40.3 50.83"/></svg>